<svg xmlns="http://www.w3.org/2000/svg" style="display:none">

  <!-- Logo mark: angular "L" formed from two strokes, used as the luvenn wordmark icon -->
  <symbol id="icon-logo" viewBox="0 0 32 32" fill="none">
    <path d="M9 5v18a4 4 0 0 0 4 4h11" stroke="currentColor" stroke-width="3.4" stroke-linecap="square" stroke-linejoin="miter"/>
    <path d="M22 21l5 6" stroke="currentColor" stroke-width="3.4" stroke-linecap="square"/>
  </symbol>

  <symbol id="icon-search" viewBox="0 0 24 24" fill="none">
    <circle cx="10.5" cy="10.5" r="6.5" stroke="currentColor" stroke-width="2"/>
    <path d="M20 20l-4.5-4.5" stroke="currentColor" stroke-width="2" stroke-linecap="round"/>
  </symbol>

  <symbol id="icon-script" viewBox="0 0 24 24" fill="none">
    <path d="M8 4H6a2 2 0 0 0-2 2v12a2 2 0 0 0 2 2h2" stroke="currentColor" stroke-width="2" stroke-linecap="round"/>
    <path d="M16 4h2a2 2 0 0 1 2 2v12a2 2 0 0 1-2 2h-2" stroke="currentColor" stroke-width="2" stroke-linecap="round"/>
    <path d="M9.5 15l2-8M12 15l2-8" stroke="currentColor" stroke-width="2" stroke-linecap="round"/>
  </symbol>

  <symbol id="icon-user" viewBox="0 0 24 24" fill="none">
    <circle cx="12" cy="8.2" r="3.4" stroke="currentColor" stroke-width="2"/>
    <path d="M4.8 20c1-3.6 4-5.6 7.2-5.6s6.2 2 7.2 5.6" stroke="currentColor" stroke-width="2" stroke-linecap="round"/>
  </symbol>

  <symbol id="icon-shield" viewBox="0 0 24 24" fill="none">
    <path d="M12 3l7 3v5.2c0 4.6-3 8.4-7 9.8-4-1.4-7-5.2-7-9.8V6l7-3z" stroke="currentColor" stroke-width="2" stroke-linejoin="round"/>
    <path d="M9 12l2 2 4-4.4" stroke="currentColor" stroke-width="2" stroke-linecap="round" stroke-linejoin="round"/>
  </symbol>

  <symbol id="icon-key" viewBox="0 0 24 24" fill="none">
    <circle cx="8" cy="14.5" r="3.5" stroke="currentColor" stroke-width="2"/>
    <path d="M10.4 12L18 4.5M15.2 7.3l2.3 2.3M17.6 5l2.3 2.3" stroke="currentColor" stroke-width="2" stroke-linecap="round"/>
  </symbol>

  <symbol id="icon-eye" viewBox="0 0 24 24" fill="none">
    <path d="M2.5 12S6 5.5 12 5.5 21.5 12 21.5 12 18 18.5 12 18.5 2.5 12 2.5 12z" stroke="currentColor" stroke-width="2" stroke-linejoin="round"/>
    <circle cx="12" cy="12" r="2.6" stroke="currentColor" stroke-width="2"/>
  </symbol>

  <symbol id="icon-download" viewBox="0 0 24 24" fill="none">
    <path d="M12 3v12M7.5 11l4.5 4.5L16.5 11" stroke="currentColor" stroke-width="2" stroke-linecap="round" stroke-linejoin="round"/>
    <path d="M4 19.5h16" stroke="currentColor" stroke-width="2" stroke-linecap="round"/>
  </symbol>

  <symbol id="icon-plus" viewBox="0 0 24 24" fill="none">
    <path d="M12 5v14M5 12h14" stroke="currentColor" stroke-width="2.2" stroke-linecap="round"/>
  </symbol>

  <symbol id="icon-trash" viewBox="0 0 24 24" fill="none">
    <path d="M5 7h14M9.5 7V5a1.5 1.5 0 0 1 1.5-1.5h2A1.5 1.5 0 0 1 14.5 5v2M7 7l1 12.5A1.5 1.5 0 0 0 9.5 21h5a1.5 1.5 0 0 0 1.5-1.5L17 7" stroke="currentColor" stroke-width="2" stroke-linecap="round" stroke-linejoin="round"/>
  </symbol>

  <symbol id="icon-edit" viewBox="0 0 24 24" fill="none">
    <path d="M4 20l.9-4L15.5 5.4a2 2 0 0 1 2.8 0l1.3 1.3a2 2 0 0 1 0 2.8L9 20l-5 1z" stroke="currentColor" stroke-width="2" stroke-linejoin="round"/>
  </symbol>

  <symbol id="icon-external" viewBox="0 0 24 24" fill="none">
    <path d="M9 6H6a2 2 0 0 0-2 2v10a2 2 0 0 0 2 2h10a2 2 0 0 0 2-2v-3" stroke="currentColor" stroke-width="2" stroke-linecap="round"/>
    <path d="M13 4h7v7M20 4l-9 9" stroke="currentColor" stroke-width="2" stroke-linecap="round" stroke-linejoin="round"/>
  </symbol>

  <symbol id="icon-copy" viewBox="0 0 24 24" fill="none">
    <rect x="8.5" y="8.5" width="11" height="11" rx="1.5" stroke="currentColor" stroke-width="2"/>
    <path d="M15.5 8.5V6A1.5 1.5 0 0 0 14 4.5H6A1.5 1.5 0 0 0 4.5 6v8A1.5 1.5 0 0 0 6 15.5h2.5" stroke="currentColor" stroke-width="2"/>
  </symbol>

  <symbol id="icon-check" viewBox="0 0 24 24" fill="none">
    <path d="M4.5 12.5l5 5 10-11" stroke="currentColor" stroke-width="2.2" stroke-linecap="round" stroke-linejoin="round"/>
  </symbol>

  <symbol id="icon-x" viewBox="0 0 24 24" fill="none">
    <path d="M6 6l12 12M18 6L6 18" stroke="currentColor" stroke-width="2.2" stroke-linecap="round"/>
  </symbol>

  <symbol id="icon-star" viewBox="0 0 24 24" fill="none">
    <path d="M12 3.5l2.6 5.6 6 .7-4.5 4.1 1.2 6-5.3-3-5.3 3 1.2-6-4.5-4.1 6-.7L12 3.5z" stroke="currentColor" stroke-width="2" stroke-linejoin="round"/>
  </symbol>

  <symbol id="icon-ban" viewBox="0 0 24 24" fill="none">
    <circle cx="12" cy="12" r="8.5" stroke="currentColor" stroke-width="2"/>
    <path d="M6.5 6.5l11 11" stroke="currentColor" stroke-width="2" stroke-linecap="round"/>
  </symbol>

  <symbol id="icon-dashboard" viewBox="0 0 24 24" fill="none">
    <rect x="4" y="4" width="7" height="7" rx="1" stroke="currentColor" stroke-width="2"/>
    <rect x="13" y="4" width="7" height="4.5" rx="1" stroke="currentColor" stroke-width="2"/>
    <rect x="13" y="11" width="7" height="9" rx="1" stroke="currentColor" stroke-width="2"/>
    <rect x="4" y="13.5" width="7" height="6.5" rx="1" stroke="currentColor" stroke-width="2"/>
  </symbol>

  <symbol id="icon-globe" viewBox="0 0 24 24" fill="none">
    <circle cx="12" cy="12" r="8.5" stroke="currentColor" stroke-width="2"/>
    <path d="M3.5 12h17M12 3.5c2.6 2.4 4 5.3 4 8.5s-1.4 6.1-4 8.5c-2.6-2.4-4-5.3-4-8.5s1.4-6.1 4-8.5z" stroke="currentColor" stroke-width="2"/>
  </symbol>

  <symbol id="icon-arrow-right" viewBox="0 0 24 24" fill="none">
    <path d="M4 12h16M13 5l7 7-7 7" stroke="currentColor" stroke-width="2" stroke-linecap="round" stroke-linejoin="round"/>
  </symbol>

  <symbol id="icon-list" viewBox="0 0 24 24" fill="none">
    <path d="M8.5 6.5h11M8.5 12h11M8.5 17.5h11" stroke="currentColor" stroke-width="2" stroke-linecap="round"/>
    <circle cx="4.3" cy="6.5" r="1.3" fill="currentColor"/>
    <circle cx="4.3" cy="12" r="1.3" fill="currentColor"/>
    <circle cx="4.3" cy="17.5" r="1.3" fill="currentColor"/>
  </symbol>

  <symbol id="icon-clock" viewBox="0 0 24 24" fill="none">
    <circle cx="12" cy="12" r="8.5" stroke="currentColor" stroke-width="2"/>
    <path d="M12 7.5V12l3.2 2" stroke="currentColor" stroke-width="2" stroke-linecap="round" stroke-linejoin="round"/>
  </symbol>

  <symbol id="icon-layers" viewBox="0 0 24 24" fill="none">
    <path d="M12 3.5l8.5 4.5-8.5 4.5-8.5-4.5L12 3.5z" stroke="currentColor" stroke-width="2" stroke-linejoin="round"/>
    <path d="M3.5 12.5L12 17l8.5-4.5" stroke="currentColor" stroke-width="2" stroke-linecap="round" stroke-linejoin="round"/>
    <path d="M3.5 16.5L12 21l8.5-4.5" stroke="currentColor" stroke-width="2" stroke-linecap="round" stroke-linejoin="round"/>
  </symbol>

  <symbol id="icon-bolt" viewBox="0 0 24 24" fill="none">
    <path d="M13 3L5 13.5h5.5L11 21l8-10.5h-5.5L13 3z" stroke="currentColor" stroke-width="2" stroke-linejoin="round"/>
  </symbol>

  <symbol id="icon-menu" viewBox="0 0 24 24" fill="none">
    <path d="M4 7h16M4 12h16M4 17h16" stroke="currentColor" stroke-width="2" stroke-linecap="round"/>
  </symbol>

</svg>
